<svg width="164" height="142" viewBox="0 0 164 142" fill="none" xmlns="http://www.w3.org/2000/svg">
<g clip-path="url(#clip0_2682_62872)">
<circle cx="92.1982" cy="71" r="71" fill="#FF538A" fill-opacity="0.5"/>
<rect x="0.698242" y="36.5" width="144.928" height="72.5341" rx="7.5" fill="white"/>
<rect x="10.1982" y="46" width="125.928" height="0.935108" fill="#E3F7FF"/>
<circle cx="27.4972" cy="55.234" r="5.29895" fill="#DDDDDD"/>
<rect x="97.7959" y="52.2339" width="6" height="58" transform="rotate(90 97.7959 52.2339)" fill="#DDDDDD"/>
<rect x="10.1982" y="63.5332" width="125.928" height="0.935108" fill="#E3F7FF"/>
<circle cx="27.4972" cy="72.7672" r="5.29895" fill="#DDDDDD"/>
<rect x="101.796" y="69.7671" width="6" height="62" transform="rotate(90 101.796 69.7671)" fill="#DDDDDD"/>
<rect x="10.1982" y="81.0659" width="125.928" height="0.935108" fill="#E3F7FF"/>
<circle cx="27.4972" cy="90.2999" r="5.29895" fill="#DDDDDD"/>
<rect x="109.796" y="87.2998" width="6" height="70" transform="rotate(90 109.796 87.2998)" fill="#DDDDDD"/>
<rect x="10.1982" y="98.5991" width="125.928" height="0.935108" fill="#E3F7FF"/>
<rect x="0.698242" y="36.5" width="144.928" height="72.5341" rx="7.5" stroke="#F3F3F3"/>
<g filter="url(#filter0_d_2682_62872)">
<rect x="123.198" width="30.6" height="29.6" rx="14.8" fill="white" shape-rendering="crispEdges"/>
<path d="M144.364 10.4844C143.157 9.33768 141.286 9.33768 140.109 10.4844L138.57 12.0235C138.329 12.2649 137.967 12.2649 137.725 12.0235L136.186 10.4844C135.613 9.91105 134.828 9.5791 134.014 9.5791C132.293 9.5791 130.905 10.9673 130.905 12.6572C130.905 13.472 131.237 14.2566 131.811 14.8602L138.148 21.1974L144.485 14.8602C145.662 13.6229 145.602 11.6613 144.364 10.4844Z" fill="#E26E8C"/>
<path d="M134.584 11.5694C134.071 11.5694 133.679 11.9617 133.679 12.4747C133.679 12.8067 133.407 13.0783 133.075 13.0783C132.743 13.0783 132.472 12.8067 132.472 12.4747C132.472 11.2978 133.407 10.3623 134.584 10.3623C134.916 10.3623 135.188 10.6339 135.188 10.9659C135.188 11.2978 134.916 11.5694 134.584 11.5694Z" fill="#E26E8C"/>
<path d="M145.293 9.04031C143.686 7.3863 141.104 7.3863 139.497 9.04031L138.436 10.1331L137.374 9.04031C135.796 7.50445 133.329 7.50445 131.751 9.04031C130.144 10.6352 130.058 13.323 131.636 15.0066L138.063 21.6226C138.178 21.7407 138.321 21.7998 138.465 21.7998C138.608 21.7998 138.751 21.7407 138.866 21.6226L145.293 15.0066C146.9 13.3525 146.9 10.6943 145.293 9.04031Z" fill="#8A033E"/>
<path d="M138.527 20.7998L132.377 14.2544C131.82 13.6621 131.498 12.8518 131.498 11.979C131.498 10.2024 132.845 8.7998 134.515 8.7998C135.305 8.7998 136.067 9.14266 136.623 9.73487L138.117 11.3245C138.351 11.5738 138.702 11.5738 138.937 11.3245L140.43 9.73487C141.602 8.55045 143.417 8.55045 144.56 9.73487C145.76 10.9505 145.819 12.9764 144.677 14.2544L138.527 20.7998Z" fill="#E26E8C"/>
<path d="M134.584 10.3623C133.407 10.3623 132.472 11.2978 132.472 12.4747C132.472 12.8067 132.743 13.0783 133.075 13.0783C133.407 13.0783 133.679 12.8067 133.679 12.4747C133.679 11.9617 134.071 11.5694 134.584 11.5694C134.916 11.5694 135.188 11.2978 135.188 10.9659C135.188 10.6339 134.916 10.3623 134.584 10.3623Z" fill="white"/>
</g>
</g>
<defs>
<filter id="filter0_d_2682_62872" x="114.198" y="-7" width="50.6001" height="49.6001" filterUnits="userSpaceOnUse" color-interpolation-filters="sRGB">
<feFlood flood-opacity="0" result="BackgroundImageFix"/>
<feColorMatrix in="SourceAlpha" type="matrix" values="0 0 0 0 0 0 0 0 0 0 0 0 0 0 0 0 0 0 127 0" result="hardAlpha"/>
<feOffset dx="1" dy="3"/>
<feGaussianBlur stdDeviation="5"/>
<feComposite in2="hardAlpha" operator="out"/>
<feColorMatrix type="matrix" values="0 0 0 0 0 0 0 0 0 0 0 0 0 0 0 0 0 0 0.25 0"/>
<feBlend mode="normal" in2="BackgroundImageFix" result="effect1_dropShadow_2682_62872"/>
<feBlend mode="normal" in="SourceGraphic" in2="effect1_dropShadow_2682_62872" result="shape"/>
</filter>
<clipPath id="clip0_2682_62872">
<rect width="163" height="142" fill="white" transform="translate(0.198242)"/>
</clipPath>
</defs>
</svg>
