<svg width="386" height="164" viewBox="0 0 386 164" fill="none" xmlns="http://www.w3.org/2000/svg">
<path d="M74.4939 123.143H92.1535C91.4833 117.934 93.1587 113.577 97.1797 110.07C101.797 106.16 107.279 107.037 110.223 108.386C113.167 109.735 115.353 111.589 116.869 115.087C117.511 116.559 117.947 117.805 118.178 118.824" stroke="#C2E8FF" stroke-width="3" stroke-linecap="round"/>
<path d="M110.741 126.022C111.723 122.516 113.737 120.223 116.784 119.144C121.354 117.526 125.687 119.681 127.418 121.849C129.149 124.018 129.698 125.759 130.024 127.577C130.242 128.789 130.321 130.19 130.26 131.781C134.109 131.619 136.691 132.419 138.004 134.18C139.592 136.285 139.755 138.804 139.176 140.658C138.598 142.513 136.668 145.217 133.048 145.217H59.6216" stroke="#C2E8FF" stroke-width="3" stroke-linecap="round"/>
<path d="M50.3271 132.74H110.742" stroke="#C2E8FF" stroke-width="3" stroke-linecap="round"/>
<path d="M33.5977 132.74H41.0333" stroke="#C2E8FF" stroke-width="3" stroke-linecap="round"/>
<rect x="9" y="15" width="195" height="54" rx="9" fill="white" stroke="#C2E8FF" stroke-width="2"/>
<g clip-path="url(#clip0_14010_131972)">
<path d="M6.36255 7.5H37.634C40.3205 7.50005 42.4982 9.67782 42.4983 12.3643V43.6357C42.4982 46.3222 40.3205 48.5 37.634 48.5H6.36255C3.67612 48.4999 1.49834 46.3222 1.49829 43.6357V12.3643C1.49834 9.67783 3.67612 7.50005 6.36255 7.5Z" fill="#C2E8FF" stroke="#C2E8FF" stroke-width="3"/>
<path d="M4.14788 47.1915C2.92818 47.9479 2.74338 48.9928 3.29779 49.9814C4.05548 51.3429 7.20084 52.0254 10.9413 50.0482C10.9523 51.4555 10.9967 53.0351 11.0891 54.8787C11.1445 55.9341 11.8764 58.4391 11.2037 59.0794C9.5774 60.6274 9.05996 61.8939 9.42957 63.5158C9.63285 64.4129 10.9154 65.0743 12.4788 65.4754C13.7687 65.88 15.3507 66.1509 16.9695 65.9081H16.9732C21.098 65.588 22.7317 64.7964 22.6504 63.0936C22.643 62.8579 22.5986 62.6011 22.521 62.3161C22.1884 61.1305 21.8964 59.8428 21.9001 58.9175C21.9038 58.6079 21.9333 58.337 22.0147 58.1259C22.0886 57.9149 22.436 57.2253 22.9572 56.8629C23.0865 56.775 23.227 56.7046 23.3785 56.6659C23.8331 56.5533 24.3728 56.7398 24.9567 57.5666C25.1083 57.7776 25.2709 58.0978 25.3226 58.4426C25.3744 58.7874 25.3226 59.1568 25.0306 59.4664C24.8643 59.6458 24.735 59.8498 24.6352 60.068C24.5391 60.2861 24.4725 60.5183 24.4393 60.7611C24.2508 62.2105 25.2894 63.9485 27.5846 64.4305C28.5936 64.6381 29.5324 64.7788 30.4047 64.8457C33.0215 65.0427 35.0211 64.5888 36.348 63.4771C37.2387 62.7383 36.4995 59.5895 35.7418 56.877C41.1751 54.8927 42.2765 50.977 42.2765 50.977C41.0531 51.6138 39.5414 53.0422 39.3122 52.1978C39.0831 51.3605 47.6173 46.1606 42.1915 36.9149C42.4576 42.449 39.7188 43.2652 39.2124 43.3215C38.7098 43.3813 38.8391 42.6178 39.1348 41.4146C37.3348 41.9248 35.9599 43.4587 34.962 44.7112C34.9176 44.5317 34.8954 44.3277 34.8511 44.1518C34.9065 43.3426 34.7328 42.3188 34.3891 41.2246C33.7644 39.265 32.5632 37.1119 31.1476 35.5393C31.5283 35.3634 31.8758 35.1839 32.1456 35.0151C37.5086 31.6024 45.9651 22.712 36.3443 10.7291C35.8416 10.1064 35.302 9.53647 34.7217 9.01226C35.631 -1.77797 29.1259 2.48254 26.2319 4.87489C21.4972 3.89684 16.3042 4.44919 11.9503 6.1731C8.66817 3.97072 2.44031 0.990833 4.34008 11.5805C4.34008 11.5805 0.403778 25.3718 10.2242 32.7388C11.9429 34.03 13.7022 34.9799 15.4357 35.6589C15.3174 35.8454 15.2583 35.9755 15.2287 36.06C15.1917 36.1022 15.1585 36.1444 15.1178 36.1901C12.2349 36.7777 11.7913 38.9836 11.7913 38.9836C11.8098 39.4832 11.7285 39.9933 11.6065 40.6828C11.3404 41.0628 11.0743 41.4463 10.8008 41.8614C10.616 42.1394 10.3536 42.4666 10.0838 42.7973C8.71623 43.4868 7.06039 43.6346 7.03452 43.6381C6.79427 43.617 6.50597 43.6733 6.34704 43.705C5.58566 43.8492 4.05178 43.8211 3.78197 45.1017C3.66 45.6822 4.09984 45.9988 4.39183 46.2908C4.64316 46.5371 4.45096 47.005 4.14788 47.1915Z" fill="#8CD3F8"/>
</g>
<rect x="53" y="57" width="36" height="24" rx="12" fill="#C2E8FF"/>
<path fill-rule="evenodd" clip-rule="evenodd" d="M66.2307 67.4612H64.6922C64.4461 67.4612 64.2307 67.6766 64.2307 67.9227V74.9996C64.2307 75.2458 64.4461 75.4612 64.6922 75.4612H65.4615C66.1384 75.4612 66.6922 74.9073 66.6922 74.2304V67.9227C66.6922 67.6766 66.4769 67.4612 66.2307 67.4612ZM76.5384 67.7692H74.6922C74.0153 67.7692 73.4615 67.2153 73.4615 66.5384V63.4615C73.4615 62.7846 72.9076 62.2307 72.2307 62.2307H71.4615C71.2153 62.2307 71 62.4461 71 62.6923V64.5384C71 66.1692 69.8615 67.7692 68.3846 67.7692C68.1384 67.7692 67.923 67.9846 67.923 68.2307V74.3846C67.923 74.6307 68.1077 74.8461 68.3538 74.8461C70.4461 74.9384 71.1538 75.7692 73.3384 75.7692C75.6461 75.7692 77.7691 75.523 77.7691 72.8461V68.9999C77.7691 68.323 77.2153 67.7692 76.5384 67.7692Z" fill="white"/>
<rect x="95" y="57" width="34" height="24" rx="12" fill="#C2E8FF"/>
<path d="M111.2 63.3999C111.42 63.3999 111.639 63.4113 111.854 63.4331L111.973 63.4565C112.24 63.5397 112.42 63.8017 112.391 64.0903C112.362 64.3786 112.132 64.5983 111.855 64.6265H111.733C111.558 64.6087 111.38 64.5991 111.2 64.5991C108.328 64.5994 106 66.9277 106 69.7993C106 72.671 108.328 74.9992 111.2 74.9995C114.072 74.9995 116.4 72.6712 116.4 69.7993L116.388 69.4399C116.384 69.3815 116.378 69.323 116.373 69.2651V69.144C116.4 68.8665 116.621 68.6376 116.909 68.6079C117.238 68.5743 117.533 68.8144 117.567 69.144L117.584 69.3589L117.6 69.7993C117.6 73.3339 114.734 76.1997 111.2 76.1997C107.665 76.1994 104.8 73.3337 104.8 69.7993C104.8 66.265 107.665 63.4002 111.2 63.3999ZM113.121 70.5991C113.482 70.5991 113.767 70.9205 113.648 71.2612C113.243 72.42 112.222 72.9994 111.201 72.9995C110.179 72.9995 109.157 72.4202 108.752 71.2612C108.633 70.9206 108.919 70.5992 109.28 70.5991H113.121ZM109.4 67.3999C109.952 67.3999 110.4 67.8476 110.4 68.3999C110.4 68.952 109.952 69.3999 109.4 69.3999C108.848 69.3997 108.4 68.9519 108.4 68.3999C108.4 67.8478 108.848 67.4001 109.4 67.3999ZM113 67.3999C113.553 67.4 114 67.8477 114 68.3999C114 68.9519 113.553 69.3998 113 69.3999C112.448 69.3999 112.001 68.952 112 68.3999C112 67.8476 112.448 67.3999 113 67.3999ZM116.4 61.8003C116.69 61.8003 116.932 62.0055 116.988 62.2788L117 62.3999V63.9995H118.6C118.931 63.9995 119.199 64.2679 119.2 64.5991C119.2 64.889 118.995 65.131 118.721 65.187L118.6 65.1987H117V66.8003L116.988 66.9204C116.932 67.1938 116.69 67.3999 116.4 67.3999C116.11 67.3997 115.868 67.1938 115.812 66.9204L115.8 66.8003V65.1987H114.2L114.08 65.187C113.806 65.1311 113.6 64.8891 113.6 64.5991C113.6 64.3092 113.806 64.067 114.08 64.0112L114.2 63.9995H115.8V62.3999C115.8 62.0687 116.069 61.8005 116.4 61.8003Z" fill="white"/>
<rect x="122" y="40" width="34" height="6" rx="3" fill="#8CD3F8"/>
<rect x="53" y="40" width="57" height="6" rx="3" fill="#8CD3F8"/>
<path d="M53 27C53 25.3431 54.3431 24 56 24H70C71.6569 24 73 25.3431 73 27C73 28.6569 71.6569 30 70 30H56C54.3431 30 53 28.6569 53 27Z" fill="#C2E8FF"/>
<rect x="85" y="24" width="28" height="6" rx="3" fill="#C2E8FF"/>
<rect x="196" y="97.2441" width="173" height="54" rx="9" fill="white" stroke="#C2E8FF" stroke-width="2"/>
<g clip-path="url(#clip1_14010_131972)">
<path d="M192.364 89.7441H223.636C226.322 89.7442 228.5 91.922 228.5 94.6084V125.88C228.5 128.566 226.322 130.744 223.636 130.744H192.364C189.678 130.744 187.5 128.566 187.5 125.88V94.6084C187.5 91.922 189.678 89.7442 192.364 89.7441Z" fill="#C2E8FF" stroke="#C2E8FF" stroke-width="3"/>
<path d="M221.606 143.774C218.873 135.441 215.488 123.19 217.648 119.324C218.607 117.596 219.696 116.761 220.307 115.163C221.907 114.141 223.133 110.001 224.384 107.161C225.053 105.652 225.787 103.39 225.859 103.321C227.084 100.108 226.827 97.5957 223.181 97.0183C222.189 96.0046 221.162 95.3244 220.7 94.8752C220.509 94.6972 220.26 94.5468 219.985 94.4107C219.715 93.7394 219.438 93.0732 219.128 92.4264C220.456 90.6279 221.681 87.9873 219.714 85.8888C217.663 83.7091 215.56 85.6129 214.777 86.4994C210.94 83.7596 204.783 83.0618 199.324 85.3213C198.818 84.4154 197.45 81.4874 194.657 82.9923C191.931 84.4646 193.063 88.8835 193.338 89.8268C189.864 93.7565 187.643 98.8582 186.709 101.576C185.322 105.62 180.531 121.505 176.051 127.728C174.853 129.393 227.832 155.747 221.606 143.774Z" fill="#8CD3F8"/>
</g>
<rect x="240" y="139.244" width="36" height="24" rx="12" fill="#C2E8FF"/>
<path fill-rule="evenodd" clip-rule="evenodd" d="M258 143.859C253.908 143.859 250.615 147.152 250.615 151.244C250.615 155.336 253.908 158.629 258 158.629C262.092 158.629 265.385 155.336 265.385 151.244C265.385 147.152 262.092 143.859 258 143.859ZM262.123 149.398L257.416 154.167C257.231 154.352 256.923 154.352 256.739 154.167L254.154 151.552C253.969 151.367 253.969 151.06 254.154 150.875L254.831 150.198C255.016 150.014 255.323 150.014 255.508 150.198L256.862 151.583C256.985 151.706 257.2 151.706 257.323 151.583L260.769 148.014C260.954 147.829 261.262 147.829 261.446 148.014L262.123 148.691C262.339 148.875 262.339 149.183 262.123 149.398Z" fill="white"/>
<rect x="282" y="139.244" width="36" height="24" rx="12" fill="#C2E8FF"/>
<path fill-rule="evenodd" clip-rule="evenodd" d="M300.431 144.198L301.846 148.813C301.908 148.998 302.092 149.09 302.277 149.09H306.892C307.354 149.09 307.539 149.706 307.169 149.983L303.415 152.752C303.262 152.875 303.2 153.09 303.262 153.275L305.046 158.013C305.169 158.444 304.708 158.813 304.339 158.536L300.308 155.521C300.154 155.398 299.939 155.398 299.754 155.521L295.692 158.536C295.323 158.813 294.831 158.444 294.985 158.013L296.708 153.275C296.769 153.09 296.708 152.875 296.554 152.752L292.8 149.983C292.431 149.706 292.646 149.09 293.077 149.09H297.692C297.908 149.09 298.062 149.029 298.123 148.813L299.569 144.167C299.692 143.736 300.308 143.767 300.431 144.198Z" fill="white"/>
<rect x="324" y="139.244" width="34" height="24" rx="12" fill="#C2E8FF"/>
<path d="M340.199 145.644C340.42 145.644 340.639 145.655 340.854 145.677L340.973 145.7C341.24 145.784 341.42 146.046 341.391 146.334C341.362 146.622 341.132 146.842 340.855 146.87H340.733C340.558 146.853 340.379 146.843 340.199 146.843C337.328 146.843 334.999 149.172 334.999 152.043C334.999 154.915 337.328 157.243 340.199 157.243C343.071 157.243 345.4 154.915 345.4 152.043L345.388 151.684C345.384 151.625 345.378 151.567 345.372 151.509V151.388C345.4 151.11 345.62 150.881 345.908 150.852C346.238 150.818 346.533 151.058 346.567 151.388L346.584 151.603L346.6 152.043C346.6 155.578 343.734 158.444 340.199 158.444C336.665 158.443 333.8 155.578 333.8 152.043C333.8 148.509 336.665 145.644 340.199 145.644ZM342.12 152.843C342.481 152.843 342.767 153.164 342.648 153.505C342.243 154.664 341.222 155.243 340.2 155.243C339.179 155.243 338.157 154.664 337.752 153.505C337.633 153.164 337.919 152.843 338.28 152.843H342.12ZM338.4 149.644C338.952 149.644 339.4 150.091 339.4 150.644C339.399 151.196 338.952 151.644 338.4 151.644C337.848 151.644 337.4 151.196 337.4 150.644C337.4 150.092 337.848 149.644 338.4 149.644ZM342 149.644C342.552 149.644 343 150.092 343 150.644C343 151.196 342.552 151.644 342 151.644C341.448 151.644 341 151.196 341 150.644C341 150.091 341.448 149.644 342 149.644ZM345.4 144.044C345.69 144.044 345.932 144.249 345.988 144.523L345.999 144.644V146.243H347.6C347.931 146.243 348.199 146.512 348.199 146.843C348.199 147.133 347.994 147.375 347.721 147.431L347.6 147.443H345.999V149.044L345.988 149.164C345.932 149.438 345.69 149.644 345.4 149.644C345.11 149.644 344.868 149.438 344.812 149.164L344.8 149.044V147.443H343.199L343.079 147.431C342.806 147.375 342.6 147.133 342.6 146.843C342.6 146.553 342.806 146.311 343.079 146.255L343.199 146.243H344.8V144.644C344.8 144.313 345.068 144.044 345.4 144.044Z" fill="white"/>
<rect x="240" y="122" width="57" height="6" rx="3" fill="#8CD3F8"/>
<rect x="309" y="122" width="34" height="6" rx="3" fill="#8CD3F8"/>
<rect x="240" y="106" width="20" height="6" rx="3" fill="#C2E8FF"/>
<rect x="272" y="106" width="28" height="6" rx="3" fill="#C2E8FF"/>
<path d="M287.225 26.2608C287.225 26.2608 296.442 27.848 293.942 37.8684" stroke="#C2E8FF" stroke-width="3" stroke-linecap="round"/>
<path d="M307.237 35.34C307.237 35.34 300.361 28.7161 294.373 36.9568" stroke="#C2E8FF" stroke-width="3" stroke-linecap="round"/>
<path d="M263.246 63.2786C263.246 63.2786 271.371 58.0902 275.623 67.0726" stroke="#C2E8FF" stroke-width="3" stroke-linecap="round"/>
<path d="M284.873 57.0604C284.873 57.0604 275.452 56.988 275.901 67.0792" stroke="#C2E8FF" stroke-width="3" stroke-linecap="round"/>
<defs>
<clipPath id="clip0_14010_131972">
<path d="M0 0H44V42C44 46.4183 40.4183 50 36 50H8C3.58172 50 0 46.4183 0 42V0Z" fill="white"/>
</clipPath>
<clipPath id="clip1_14010_131972">
<path d="M186 82.2441H230V124.244C230 128.662 226.418 132.244 222 132.244H194C189.582 132.244 186 128.662 186 124.244V82.2441Z" fill="white"/>
</clipPath>
</defs>
</svg>
